<?xml version="1.0" encoding="utf-8"?>
<!-- Generator: Adobe Illustrator 16.0.0, SVG Export Plug-In . SVG Version: 6.00 Build 0)  -->
<!DOCTYPE svg PUBLIC "-//W3C//DTD SVG 1.1//EN" "http://www.w3.org/Graphics/SVG/1.1/DTD/svg11.dtd">
<svg version="1.1" id="Layer_1" xmlns="http://www.w3.org/2000/svg" xmlns:xlink="http://www.w3.org/1999/xlink" x="0px" y="0px"
	 width="501px" height="116px" viewBox="0 0 501 116" enable-background="new 0 0 501 116" xml:space="preserve">
<g>
	<path d="M91.522,14.55c2.895-4.084,4.511-10.875,4.71-11.743c0.213-0.932-0.178-1.897-0.978-2.421
		c-0.38-0.247-0.814-0.371-1.248-0.371c-0.479,0-0.958,0.151-1.361,0.451C85.585,5.71,75.794,7.999,69.555,8.364
		c-0.78,0.046-1.729,0.068-2.9,0.068c-2.192,0-4.795-0.08-7.313-0.157c-2.511-0.077-4.883-0.15-6.888-0.15
		c-0.653,0-1.221,0.008-1.735,0.024c-1.722,0.013-4.079,0.105-6.572,0.205c-3.122,0.124-6.35,0.252-8.896,0.252
		c-0.808,0-1.506-0.014-2.075-0.04c-6.872-0.322-17.506-2.638-24.86-8.101c-0.403-0.3-0.882-0.451-1.361-0.451
		c-0.434,0-0.868,0.124-1.247,0.371C4.905,0.908,4.515,1.874,4.728,2.807c0.199,0.868,1.815,7.659,4.709,11.743
		C3.791,19.483,0.5,26.631,0.5,34.227c0,9.847,5.476,18.436,13.541,22.89c3.299,20.279,15.663,36.729,35.969,47.755
		c16.121,8.754,31.397,10.989,32.039,11.08c0.16,0.023,0.321,0.034,0.48,0.034c0.819,0,1.618-0.294,2.245-0.839
		c0.749-0.65,1.179-1.593,1.179-2.585V57.62c8.589-4.286,14.506-13.159,14.506-23.394C100.459,26.631,97.169,19.483,91.522,14.55z
		 M79.105,103.535C65.215,97.882,61.333,83.76,60.664,80.798c-0.027-0.119-0.046-0.2-0.057-0.241
		c-0.477-1.829-2.351-2.949-4.183-2.475c-1.83,0.477-2.933,2.321-2.456,4.151l0.017,0.073c0.67,2.968,4.018,15.196,14.814,23.234
		c-4.724-1.58-10.184-3.773-15.698-6.784C35.904,89.368,25.32,76.305,21.546,59.857c1.646,0.326,3.345,0.501,5.085,0.501
		c4.251,0,8.422-1.044,12.179-3.032l1.127,1.39c0.083,0.188,0.193,0.367,0.33,0.531l4.345,5.236
		c0.004,0.004,0.008,0.009,0.012,0.014l4.1,4.94c0.434,0.522,1.077,0.825,1.756,0.825s1.323-0.303,1.756-0.825l8.456-10.19
		l1.566-1.867c3.73,1.954,7.865,2.979,12.07,2.979c1.632,0,3.228-0.158,4.777-0.445V103.535z M45.895,49.22
		c0.81-1.523,3.068-2.467,4.696-2.467c1.625,0,3.882,0.942,4.693,2.465c0.436,0.818,0.383,1.704-0.15,2.497l-4.071,5.989
		c-0.106,0.156-0.283,0.249-0.472,0.249c-0.189,0-0.366-0.093-0.472-0.249l-4.071-5.991C45.515,50.923,45.46,50.038,45.895,49.22z
		 M74.063,51.026c-8.531,0-15.57-6.373-16.628-14.616c-6.012-4.469-11.07-2.168-13.59-0.353c-0.899,8.414-8.02,14.969-16.672,14.969
		c-9.262,0-16.77-7.509-16.77-16.771s7.508-16.77,16.77-16.77c7.727,0,14.229,5.228,16.174,12.338
		c3.605-1.755,8.747-2.871,14.512,0.108c1.907-7.167,8.438-12.446,16.205-12.446c9.262,0,16.77,7.508,16.77,16.77
		S83.325,51.026,74.063,51.026z"/>
	<g>
		<path d="M27.173,30.364c-2.146,0-3.891,1.746-3.891,3.892s1.746,3.892,3.891,3.892s3.891-1.746,3.891-3.892
			S29.319,30.364,27.173,30.364z"/>
		<path d="M74.063,30.364c-2.146,0-3.891,1.746-3.891,3.892s1.745,3.892,3.891,3.892s3.891-1.746,3.891-3.892
			S76.209,30.364,74.063,30.364z"/>
	</g>
	<g>
		<path d="M163.638,99.039L163.638,99.039l-0.001-28.902H132.63v16.509c0,6.845-5.549,12.394-12.394,12.394l0,0V45.303
			c0-6.845,5.549-12.393,12.394-12.393l0,0v28.445h31.007V45.305c0-6.846,5.55-12.395,12.395-12.395l0,0v53.735
			C176.031,93.49,170.482,99.039,163.638,99.039z"/>
		<path d="M210.604,51.386c3.506,0,6.685,0.564,9.536,1.692c2.851,1.128,5.282,2.729,7.295,4.802
			c2.012,2.073,3.566,4.604,4.664,7.592c1.097,2.988,1.646,6.326,1.646,10.015c0,3.721-0.549,7.074-1.646,10.062
			c-1.098,2.988-2.652,5.534-4.664,7.638c-2.013,2.104-4.444,3.72-7.295,4.848c-2.852,1.127-6.03,1.692-9.536,1.692
			c-3.505,0-6.691-0.565-9.558-1.692c-2.866-1.128-5.313-2.744-7.34-4.848c-2.027-2.104-3.598-4.649-4.711-7.638
			c-1.113-2.987-1.669-6.341-1.669-10.062c0-3.688,0.556-7.026,1.669-10.015s2.684-5.519,4.711-7.592
			c2.026-2.073,4.474-3.674,7.34-4.802S207.099,51.386,210.604,51.386z M210.604,91.036c3.903,0,6.792-1.311,8.667-3.933
			s2.812-6.464,2.812-11.525c0-5.061-0.938-8.918-2.812-11.57s-4.764-3.979-8.667-3.979c-3.964,0-6.891,1.335-8.78,4.003
			c-1.891,2.668-2.835,6.517-2.835,11.547s0.944,8.865,2.835,11.502C203.713,89.718,206.64,91.036,210.604,91.036z"/>
		<path d="M272.252,61.265c-0.306,0.487-0.626,0.83-0.961,1.028c-0.336,0.199-0.763,0.297-1.28,0.297
			c-0.549,0-1.137-0.152-1.761-0.457c-0.626-0.304-1.349-0.647-2.172-1.029c-0.823-0.381-1.761-0.724-2.812-1.028
			c-1.053-0.305-2.295-0.458-3.728-0.458c-2.227,0-3.979,0.474-5.259,1.419c-1.281,0.944-1.922,2.18-1.922,3.703
			c0,1.007,0.328,1.853,0.983,2.539c0.655,0.686,1.524,1.288,2.606,1.806c1.082,0.519,2.311,0.983,3.682,1.396
			c1.372,0.411,2.774,0.861,4.208,1.349c1.433,0.488,2.836,1.045,4.207,1.67c1.372,0.625,2.6,1.417,3.682,2.378
			c1.082,0.96,1.951,2.111,2.607,3.452c0.655,1.343,0.982,2.958,0.982,4.849c0,2.256-0.412,4.337-1.234,6.242
			c-0.823,1.906-2.027,3.552-3.612,4.938c-1.586,1.388-3.545,2.47-5.878,3.247c-2.332,0.778-5.007,1.166-8.025,1.166
			c-1.616,0-3.194-0.145-4.733-0.434c-1.54-0.291-3.018-0.693-4.437-1.212c-1.417-0.519-2.729-1.128-3.933-1.83
			c-1.204-0.7-2.264-1.463-3.179-2.286l2.607-4.299c0.335-0.519,0.731-0.915,1.189-1.189c0.456-0.273,1.035-0.411,1.737-0.411
			c0.701,0,1.364,0.198,1.988,0.595c0.626,0.396,1.35,0.823,2.173,1.28s1.791,0.884,2.904,1.28c1.112,0.396,2.522,0.595,4.23,0.595
			c1.342,0,2.493-0.16,3.453-0.48c0.961-0.319,1.752-0.739,2.378-1.258c0.624-0.518,1.082-1.12,1.372-1.807
			c0.289-0.686,0.435-1.394,0.435-2.126c0-1.098-0.328-1.997-0.984-2.698c-0.655-0.701-1.524-1.311-2.607-1.829
			c-1.082-0.519-2.316-0.983-3.703-1.395c-1.388-0.412-2.805-0.862-4.253-1.35s-2.866-1.059-4.254-1.715
			c-1.388-0.655-2.622-1.486-3.703-2.492c-1.084-1.007-1.952-2.241-2.606-3.705c-0.657-1.463-0.984-3.23-0.984-5.305
			c0-1.921,0.381-3.751,1.144-5.487c0.762-1.738,1.882-3.255,3.36-4.551c1.479-1.296,3.323-2.333,5.534-3.11
			c2.21-0.777,4.765-1.166,7.66-1.166c3.232,0,6.174,0.534,8.827,1.601c2.652,1.067,4.863,2.47,6.631,4.208L272.252,61.265z"/>
		<path d="M301.612,99.771c-4.056,0-7.181-1.15-9.376-3.452s-3.292-5.48-3.292-9.535V60.578h-4.757c-0.61,0-1.136-0.198-1.578-0.595
			c-0.441-0.396-0.663-0.99-0.663-1.783v-4.481l7.547-1.235l2.378-12.805c0.121-0.609,0.403-1.083,0.846-1.418
			c0.441-0.335,0.998-0.503,1.67-0.503h5.854v14.771h12.348v8.05H300.24v25.427c0,1.464,0.365,2.607,1.097,3.431
			c0.732,0.823,1.707,1.234,2.927,1.234c0.701,0,1.289-0.083,1.762-0.251c0.472-0.167,0.884-0.344,1.234-0.526
			c0.35-0.183,0.663-0.358,0.938-0.525c0.274-0.168,0.549-0.252,0.823-0.252c0.335,0,0.61,0.084,0.823,0.252
			c0.213,0.167,0.442,0.419,0.686,0.754l3.385,5.488c-1.646,1.372-3.537,2.409-5.671,3.11
			C306.108,99.42,303.898,99.771,301.612,99.771z"/>
		<path d="M323.288,34.327h3.567c0.885,0,1.372,0.397,1.465,1.189l8.551,53.781c0.092,0.58,0.152,1.183,0.183,1.807
			c0.031,0.626,0.076,1.273,0.139,1.943c0.212-0.67,0.435-1.317,0.662-1.943c0.229-0.624,0.464-1.227,0.709-1.807l23.37-53.781
			c0.151-0.335,0.38-0.617,0.686-0.846c0.305-0.229,0.67-0.344,1.098-0.344h1.006c0.823,0,1.311,0.397,1.464,1.189l10.152,53.781
			c0.091,0.549,0.168,1.137,0.229,1.762c0.06,0.625,0.12,1.258,0.182,1.897c0.214-0.64,0.419-1.272,0.618-1.897
			c0.197-0.625,0.403-1.213,0.617-1.762l21.724-53.781c0.12-0.335,0.356-0.617,0.708-0.846c0.351-0.229,0.739-0.344,1.166-0.344
			h3.521l-26.708,64.712h-4.07L363.762,42.65c-0.062-0.335-0.113-0.701-0.159-1.097c-0.046-0.396-0.099-0.808-0.161-1.235
			c-0.152,0.428-0.297,0.839-0.434,1.235c-0.138,0.396-0.283,0.762-0.435,1.097l-24.421,56.389h-4.071L323.288,34.327z"/>
		<path d="M417.68,53.535l-5.533,45.504h-4.253l5.533-45.504H417.68z M421.019,37.849c0,0.549-0.107,1.06-0.32,1.532
			s-0.503,0.892-0.869,1.258s-0.785,0.656-1.257,0.869c-0.473,0.213-0.953,0.319-1.441,0.319c-0.518,0-1.006-0.106-1.463-0.319
			s-0.861-0.503-1.213-0.869c-0.35-0.366-0.632-0.785-0.846-1.258c-0.213-0.473-0.32-0.983-0.32-1.532
			c0-0.548,0.107-1.066,0.32-1.555c0.214-0.487,0.496-0.922,0.846-1.304c0.352-0.381,0.756-0.678,1.213-0.892
			c0.457-0.213,0.945-0.32,1.463-0.32c0.488,0,0.969,0.107,1.441,0.32c0.472,0.214,0.891,0.503,1.257,0.869s0.656,0.801,0.869,1.304
			S421.019,37.301,421.019,37.849z"/>
		<path d="M457.558,59.115c-0.245,0.427-0.579,0.64-1.006,0.64c-0.306,0-0.68-0.19-1.12-0.572c-0.442-0.381-1.046-0.807-1.807-1.28
			c-0.763-0.472-1.708-0.899-2.836-1.28s-2.531-0.571-4.207-0.571c-1.556,0-3.027,0.259-4.414,0.777
			c-1.387,0.52-2.592,1.212-3.612,2.081c-1.022,0.869-1.829,1.875-2.424,3.019c-0.595,1.143-0.892,2.355-0.892,3.635
			c0,1.251,0.289,2.303,0.868,3.156s1.35,1.593,2.311,2.218c0.96,0.625,2.042,1.166,3.247,1.623
			c1.203,0.458,2.446,0.915,3.727,1.373c1.28,0.457,2.522,0.968,3.727,1.531c1.205,0.564,2.287,1.243,3.248,2.035
			c0.96,0.793,1.729,1.762,2.31,2.904c0.578,1.144,0.869,2.523,0.869,4.139c0,1.951-0.389,3.842-1.166,5.671
			c-0.778,1.829-1.884,3.452-3.316,4.871c-1.433,1.417-3.163,2.554-5.191,3.407c-2.027,0.853-4.291,1.279-6.791,1.279
			c-2.957,0-5.427-0.51-7.409-1.531c-1.981-1.021-3.688-2.355-5.121-4.002l1.052-1.555c0.183-0.244,0.366-0.427,0.55-0.549
			c0.182-0.122,0.411-0.183,0.686-0.183c0.304,0,0.686,0.244,1.143,0.731c0.458,0.488,1.09,1.028,1.897,1.623
			c0.808,0.596,1.837,1.137,3.087,1.624c1.25,0.488,2.82,0.731,4.711,0.731c1.799,0,3.438-0.297,4.917-0.892
			c1.479-0.595,2.743-1.41,3.795-2.446s1.868-2.233,2.447-3.591c0.578-1.355,0.869-2.797,0.869-4.321
			c0-1.341-0.291-2.47-0.869-3.384c-0.579-0.915-1.343-1.7-2.287-2.355c-0.945-0.655-2.028-1.212-3.247-1.669
			c-1.219-0.458-2.463-0.907-3.727-1.35c-1.266-0.441-2.509-0.93-3.728-1.463s-2.303-1.182-3.247-1.944
			c-0.945-0.762-1.708-1.692-2.287-2.79c-0.578-1.097-0.868-2.438-0.868-4.023c0-1.769,0.381-3.469,1.144-5.101
			c0.762-1.63,1.829-3.079,3.201-4.344s3.002-2.271,4.893-3.019s3.963-1.121,6.22-1.121c2.562,0,4.786,0.397,6.678,1.189
			c1.891,0.793,3.567,1.982,5.03,3.567L457.558,59.115z"/>
		<path d="M500.5,62.225c0,1.25-0.168,2.439-0.504,3.567c-0.335,1.128-0.931,2.194-1.782,3.201
			c-0.854,1.006-2.014,1.959-3.477,2.857c-1.464,0.899-3.339,1.723-5.625,2.47c-2.286,0.748-5.017,1.418-8.187,2.013
			c-3.171,0.595-6.89,1.12-11.159,1.578c-0.062,0.64-0.107,1.273-0.137,1.897c-0.03,0.626-0.046,1.243-0.046,1.853
			c0,4.543,1.028,8.095,3.088,10.656c2.057,2.561,5.159,3.841,9.307,3.841c1.615,0,3.07-0.175,4.367-0.526
			c1.296-0.35,2.453-0.8,3.475-1.349c1.022-0.549,1.921-1.128,2.699-1.738c0.777-0.609,1.471-1.188,2.081-1.737
			s1.136-0.998,1.577-1.35c0.441-0.35,0.846-0.525,1.212-0.525s0.686,0.152,0.96,0.457l1.007,1.189
			c-1.494,1.586-2.949,2.949-4.368,4.093c-1.417,1.143-2.851,2.081-4.298,2.812c-1.448,0.731-2.95,1.273-4.505,1.623
			c-1.555,0.351-3.218,0.526-4.985,0.526c-2.531,0-4.779-0.42-6.745-1.258c-1.967-0.838-3.621-2.027-4.963-3.567
			c-1.341-1.539-2.363-3.413-3.063-5.625c-0.702-2.21-1.052-4.688-1.052-7.432c0-2.286,0.229-4.588,0.687-6.905
			c0.456-2.316,1.135-4.543,2.034-6.678c0.899-2.133,2.013-4.13,3.339-5.99c1.326-1.859,2.842-3.476,4.55-4.848
			s3.598-2.454,5.672-3.247c2.072-0.792,4.312-1.188,6.722-1.188c2.226,0,4.109,0.312,5.648,0.937
			c1.539,0.626,2.79,1.403,3.751,2.333c0.96,0.931,1.653,1.937,2.08,3.018C500.286,60.267,500.5,61.28,500.5,62.225z
			 M488.152,56.097c-2.441,0-4.643,0.519-6.609,1.555c-1.966,1.037-3.703,2.416-5.213,4.139s-2.774,3.72-3.796,5.991
			c-1.022,2.271-1.776,4.642-2.264,7.111c3.871-0.427,7.21-0.922,10.016-1.486c2.804-0.563,5.183-1.158,7.135-1.784
			c1.95-0.624,3.527-1.303,4.733-2.035c1.203-0.731,2.142-1.485,2.812-2.264c0.67-0.777,1.12-1.577,1.348-2.4
			c0.229-0.824,0.344-1.677,0.344-2.561c0-0.641-0.146-1.334-0.435-2.082c-0.29-0.746-0.771-1.424-1.44-2.034
			c-0.671-0.609-1.548-1.121-2.629-1.532C491.07,56.303,489.737,56.097,488.152,56.097z"/>
	</g>
</g>
</svg>
