<?xml version="1.0" encoding="utf-8"?>
<!-- Generator: Adobe Illustrator 16.0.0, SVG Export Plug-In . SVG Version: 6.00 Build 0)  -->
<!DOCTYPE svg PUBLIC "-//W3C//DTD SVG 1.1//EN" "http://www.w3.org/Graphics/SVG/1.1/DTD/svg11.dtd">
<svg version="1.1" xmlns="http://www.w3.org/2000/svg" xmlns:xlink="http://www.w3.org/1999/xlink" x="0px" y="0px" width="220px"
	 height="220px" viewBox="0 0 220 220" enable-background="new 0 0 220 220" xml:space="preserve">
<g id="Layer_1">
</g>
<g id="Isolation_Mode">
	<g>
		<g>
			<path fill="#E36159" d="M110,215.001C52.102,215.001,5,167.897,5,110S52.102,4.999,110,4.999c57.897,0,105,47.104,105,105.001
				S167.897,215.001,110,215.001z M110,11.952c-54.063,0-98.047,43.984-98.047,98.048c0,54.062,43.983,98.045,98.047,98.045
				c54.062,0,98.047-43.983,98.047-98.045C208.047,55.937,164.062,11.952,110,11.952z"/>
		</g>
		<g>
			<path fill-rule="evenodd" clip-rule="evenodd" fill="#E36159" d="M120.444,85.799c-6.685,0-12.772,0-19.199,0
				c-0.437-3.804-0.361-7.525-0.084-11.25c0.03-0.41,0.263-0.905,0.566-1.176c1.05-0.938,2.634-1.585,3.141-2.729
				c0.558-1.264,0.827-2.47,2.293-2.719c0-2.204,0-4.163,0-6.247c-1.661-0.306-3.187-0.498-4.663-0.88
				c-2.176-0.568-2.161-0.628-1.684-3.524c1.708,0.215,3.428,0.611,5.149,0.609c3.102-0.006,6.214-0.132,9.303-0.422
				c4.146-0.386,7.903,0.45,11.512,2.995c-0.565,0.728-1.077,1.386-1.673,2.151c-3.452-1.343-6.865-2.03-10.827-1.221
				c0,1.8-0.076,3.546,0.043,5.278c0.038,0.55,0.56,1.089,0.923,1.586c0.313,0.429,1.004,0.778,1.026,1.192
				c0.089,1.513,1.283,1.839,2.208,2.597c0.867,0.714,1.809,1.896,1.875,2.927C120.584,78.472,120.444,82.001,120.444,85.799z"/>
			<path fill-rule="evenodd" clip-rule="evenodd" fill="#E36159" d="M110.586,159.756c-5.221,0-10.442,0.102-15.658-0.022
				c-7.104-0.172-12.155-4.737-12.737-11.568c-0.186-2.186,0.146-4.428,0.373-6.63c1.073-10.481,2.176-20.957,3.305-31.436
				c0.344-3.196,0.724-6.394,1.221-9.57c1.049-6.686,7.249-12.327,14.048-12.527c6.326-0.187,12.663-0.17,18.989-0.013
				c7.032,0.176,13.232,5.602,14.333,12.595c0.827,5.254,1.296,10.565,1.869,15.857c0.849,7.83,1.659,15.663,2.461,23.497
				c0.272,2.643,0.818,5.319,0.63,7.938c-0.507,6.985-5.77,11.716-12.841,11.875c-2.663,0.057-5.331,0.008-7.994,0.008
				C115.917,159.76,113.252,159.76,110.586,159.756z M128.338,110.537c-0.374-3.139-0.525-6.002-1.089-8.783
				c-0.778-3.833-3.913-6.419-7.796-6.487c-5.761-0.101-11.532-0.101-17.294,0.024c-4.189,0.091-7.072,2.567-7.904,6.711
				c-0.501,2.489-0.692,5.042-0.996,7.568c-0.249,2.087-0.078,2.321,1.928,3.286c3.047,1.463,6.263,1.536,9.427,0.772
				c2.999-0.726,5.91-1.822,8.841-2.824c4.181-1.429,8.393-1.966,12.716-0.686C126.76,110.293,127.378,110.355,128.338,110.537z"/>
		</g>
	</g>
</g>
</svg>
