<?xml version="1.0" encoding="utf-8"?>
<!-- Generator: Adobe Illustrator 16.0.0, SVG Export Plug-In . SVG Version: 6.00 Build 0)  -->
<!DOCTYPE svg PUBLIC "-//W3C//DTD SVG 1.1//EN" "http://www.w3.org/Graphics/SVG/1.1/DTD/svg11.dtd">
<svg version="1.1" xmlns="http://www.w3.org/2000/svg" xmlns:xlink="http://www.w3.org/1999/xlink" x="0px" y="0px" width="220px"
	 height="220px" viewBox="0 0 220 220" enable-background="new 0 0 220 220" xml:space="preserve">
<g id="Layer_1">
</g>
<g id="Isolation_Mode">
	<g>
		<g>
			<g>
				<path fill="#E36159" d="M108.864,126.288h-5.077c1.672,9.098,4.96,16.656,5.005,16.759c0.44,1.001-0.014,2.169-1.014,2.606
					c-0.259,0.114-0.529,0.171-0.796,0.171c-0.76,0-1.483-0.444-1.81-1.184c-0.122-0.276-1.538-3.529-2.995-8.312
					c-0.819-2.826-1.664-6.251-2.293-10.041c-0.541-3.237-0.926-6.742-1.007-10.368c-0.012-0.481-0.019-0.964-0.019-1.447v-8.544
					h-3.953v8.544c0,4.147,0.383,8.143,0.958,11.815h-6.5c-0.498,6.751-0.28,15.344,1.52,25.909
					c0.018,0.119,0.042,0.229,0.064,0.324h25.394c0.019-0.06,0.037-0.122,0.057-0.188c1.742-5.93,2.257-13.368,1.123-16.24
					C116.3,132.993,112.13,129.191,108.864,126.288z"/>
				<path fill="#E36159" d="M114.505,118.918c-2.139-1.893-4.156-3.688-4.855-4.794c-0.771-1.213-0.604-1.678-0.065-3.221
					c0.405-1.153,0.91-2.589,0.91-4.469c0-4.81-4.497-8.714-5.01-9.144c-0.476-0.397-1.078-0.618-1.697-0.618H90.779
					c-0.779,0-1.52,0.348-2.019,0.941c-0.563,0.668-13.702,16.802-7,56.137c0.832,4.874,3.972,8.021,8,8.021h27.455
					c2.761,0,6.403-1.183,8.062-6.829c1.524-5.194,3.421-15.723,0.854-22.242C124.035,127.379,118.75,122.69,114.505,118.918z
					 M120.206,153.449c-0.893,3.036-2.155,3.036-2.99,3.036H89.761c-1.599,0-2.489-1.87-2.787-3.62
					c-3.27-19.191-1.497-32.288,0.567-39.895c1.588-5.857,3.587-9.437,4.603-11.01h2.761h3.953h3.879
					c1.01,1.037,2.469,2.887,2.469,4.474c0,0.979-0.281,1.785-0.61,2.723c-0.654,1.866-1.551,4.422,0.587,7.795
					c1.099,1.739,3.179,3.584,5.812,5.92c3.823,3.396,8.588,7.625,10.217,11.769C122.892,138.905,121.948,147.518,120.206,153.449z"
					/>
				<path fill="#E36159" d="M114.849,81.215c-0.62,0.157-1.197,0.355-1.73,0.594c-1.46,0.656-2.582,1.588-3.419,2.612
					c-1.14,1.397-1.753,2.968-1.975,4.257h3.577c0.037,0.081,0.071,0.162,0.104,0.242c1.585,3.547,3.61,6.841,5.951,9.836
					c0.574,0.74,1.625,0.949,2.447,0.454c0.889-0.535,1.174-1.689,0.639-2.576l-0.004-0.007c-1.818-3.018-3.277-6.215-4.292-9.506
					c-0.503-1.644-0.899-3.31-1.163-4.979C114.934,81.834,114.89,81.523,114.849,81.215z"/>
				<path fill="#E36159" d="M118.433,77.496c0.028,0,0.056,0,0.087-0.004l5.34-0.415c0.574-0.043,1.017-0.521,1.017-1.095v-1.309
					v-6.995c0-0.573-0.44-1.051-1.011-1.098l-3.652-0.3l-1.689-0.14c-0.031-0.002-0.062-0.004-0.091-0.004h-0.042v1.103v9.155v1.101
					h0.036C118.429,77.496,118.433,77.496,118.433,77.496z"/>
				<path fill="#E36159" d="M80.871,78.437c0.021,0.008,2.278,0.656,4.482,2.275c2.839,2.089,4.279,4.746,4.279,7.901v3.077
					c0,0.46,0.284,0.854,0.684,1.019c0.129,0.052,0.271,0.082,0.419,0.082h12.426c0.015,0,0.032,0,0.048,0
					c0.143,0,0.286-0.026,0.42-0.082c0.371-0.15,0.674-0.505,0.685-1.042c0-0.038,0-0.109,0-0.244c0-0.255,0.006-0.739,0.006-1.663
					c0-0.333,0.023-0.699,0.07-1.082c0.242-2.005,1.154-4.594,3.152-6.829c0.339-0.38,0.732-0.777,1.19-1.165
					c0.974-0.836,2.225-1.648,3.796-2.245c0.648-0.245,1.35-0.453,2.109-0.611c0.359-0.073,0.728-0.137,1.111-0.186v-1.063v-0.044
					v-9.295v-1.103H97.083c-4.889,0-9.363,1.862-12.944,5.387c-2.687,2.646-3.92,5.28-3.972,5.392c-0.137,0.292-0.137,0.63,0,0.925
					C80.302,78.132,80.559,78.35,80.871,78.437z M103.21,91.653c0,0.03,0,0.037,0,0.04C103.21,91.69,103.21,91.682,103.21,91.653z"
					/>
				<path fill="#E36159" d="M133.872,69.244c1.477,0,2.669,1.193,2.669,2.665c0,1.47-1.192,2.665-2.669,2.665
					c-1.467,0-2.661-1.195-2.661-2.665C131.211,70.437,132.405,69.244,133.872,69.244z"/>
				<circle fill="#E36159" cx="149.209" cy="71.908" r="2.665"/>
				<circle fill="#E36159" cx="149.209" cy="80.812" r="2.664"/>
				<circle fill="#E36159" cx="149.209" cy="62.931" r="2.665"/>
				<circle fill="#E36159" cx="141.523" cy="76.405" r="2.666"/>
				<circle fill="#E36159" cx="141.523" cy="67.412" r="2.666"/>
			</g>
		</g>
		<g>
			<path fill="#E36159" d="M110.746,215c-57.897,0-105-47.104-105-105c0-57.896,47.103-105,105-105c57.896,0,105,47.103,105,105
				C215.746,167.896,168.642,215,110.746,215z M110.746,11.954c-54.062,0-98.046,43.984-98.046,98.046s43.984,98.044,98.046,98.044
				c54.063,0,98.045-43.982,98.045-98.044S164.809,11.954,110.746,11.954z"/>
		</g>
	</g>
</g>
</svg>
