<?xml version="1.0" encoding="utf-8"?>
<!-- Generator: Adobe Illustrator 16.0.0, SVG Export Plug-In . SVG Version: 6.00 Build 0)  -->
<!DOCTYPE svg PUBLIC "-//W3C//DTD SVG 1.1//EN" "http://www.w3.org/Graphics/SVG/1.1/DTD/svg11.dtd">
<svg version="1.1" xmlns="http://www.w3.org/2000/svg" xmlns:xlink="http://www.w3.org/1999/xlink" x="0px" y="0px" width="220px"
	 height="220px" viewBox="0 0 220 220" enable-background="new 0 0 220 220" xml:space="preserve">
<g id="Layer_1">
</g>
<g id="Isolation_Mode">
	<g>
		<path fill="#E36159" d="M153.452,151.25H67.966c-12.993,0-23.565-10.575-23.565-23.568c0-12.994,10.572-23.567,23.565-23.567
			h84.823c2.026,0,3.669,1.642,3.669,3.668s-1.643,3.669-3.669,3.669H67.966c-8.948,0-16.229,7.281-16.229,16.23
			c0,8.948,7.28,16.229,16.229,16.229h85.486c5.272,0,9.561-4.289,9.561-9.561c0-5.271-4.288-9.56-9.561-9.56H68.746
			c-1.655,0-3.002,1.348-3.002,3.002s1.347,3.002,3.002,3.002h83.375c2.026,0,3.669,1.643,3.669,3.669s-1.643,3.667-3.669,3.667
			H68.746c-5.701,0-10.339-4.637-10.339-10.338s4.638-10.338,10.339-10.338h84.706c9.319,0,16.899,7.58,16.899,16.896
			C170.352,143.668,162.771,151.25,153.452,151.25z"/>
		<path fill="#E36159" d="M139.332,98.11H67.627c-2.764,0-5.361-1.076-7.314-3.032c-1.953-1.954-3.026-4.553-3.024-7.315
			c0.007-5.696,4.645-10.329,10.339-10.329h71.154c2.026,0,3.67,1.643,3.67,3.668c0,2.026-1.644,3.669-3.67,3.669H67.627
			c-1.653,0-3,1.346-3.002,2.998c0,0.803,0.312,1.557,0.878,2.125c0.567,0.567,1.321,0.88,2.124,0.88h71.705
			c5.512,0,10.001-4.485,10.003-10c0.002-2.674-1.038-5.187-2.928-7.079c-1.889-1.89-4.402-2.932-7.075-2.932h-71.92
			c-2.026,0-3.669-1.642-3.669-3.668s1.643-3.668,3.669-3.668h71.92c4.633,0,8.99,1.805,12.264,5.082
			c3.278,3.276,5.079,7.635,5.077,12.269C156.669,90.335,148.889,98.11,139.332,98.11z"/>
		<g>
			<path fill="#E36159" d="M110.235,215.001c-57.897,0-105-47.104-105-105.001s47.103-105.001,105-105.001s105,47.104,105,105.001
				S168.133,215.001,110.235,215.001z M110.235,11.952c-54.064,0-98.047,43.984-98.047,98.048c0,54.062,43.983,98.045,98.047,98.045
				c54.064,0,98.047-43.983,98.047-98.045C208.282,55.937,164.3,11.952,110.235,11.952z"/>
		</g>
	</g>
</g>
</svg>
